<svg xmlns="http://www.w3.org/2000/svg" width="1250" height="270" viewBox="0 0 1250 270">
  <path fill="#43c895" d="M46.3,236.8l1-1c.2-.2.3-.4.6-.5l1.6-1.7c2.2-2,4.5-3.9,6.1-6.5a10.22,10.22,0,0,1,1.8-1.8l2.6-2.9c.3-.3.3-.9.6-1.2a2.41,2.41,0,0,1,.8-.6,3.09,3.09,0,0,1,1-.4,1.54,1.54,0,0,0,.9-1.6l.2-.5.4.5.2-1,.2.2,1.5-1.2,1.1-1.4,1.3-1.1.1-.6c.8-.3,1.6-.6,1.9-1.7.3,0,1.1.6.8-.5l.1-.3,2.4-2.2,1.6-1.5,2.3-2.4a7.84,7.84,0,0,1,1.5-1l.2-.2c.7-1.8,2.4-2.7,3.4-4.3l-.5-.1c.6-.4.8-1.3,1.7-1,.2,0,.3-.3.5-.3l-.3-.4,2.2-2.4c.3.8-1,.7-.3,1.5,1-1,1-1,.8-1.6l.7-.6v.8l.2.1c.1-.3.3-.5.3-.8l-.3-.1.9-.5h.1v.1l-.3-.2,1.6-2.1a1.08,1.08,0,0,0,.8-.2c.1-.1,0-.4-.2-.6l.9-1c-1.6.7-2.2,2.8-4.3,2.6l.6.7-.8.6-1.7,1c-.3.3-.3.8-.5,1.2-1.5.1-1.6,1.7-2.5,2.5L80.6,200l-8.2,8.6-4.1,3.9-.5-.4-3.2,3.2-.2-.1,1.5-2.6L63.3,215l1,.7-1.6,1.5h-.2a.8.8,0,0,0-1.4,0,5.8,5.8,0,0,1-1,1.2l-.1.1-.5-.1a16.56,16.56,0,0,0-6,7.1l-.3-.2.2-.6L52.1,226l.2.1-.3.9-.1-.2-1.2.8a.65.65,0,0,0-.2.5c-.3.4-.5.8-.9,1l-.7.4c-.3.2-.3.5-.5.8l-.4.7-5.8,6-8,8.8a37.06,37.06,0,0,1-2.7,2.9c2.7-4.5,6.5-8,9.7-11.9.1-.3.1-.5.3-.7a25,25,0,0,1,2.2-2.4,15,15,0,0,0,1.3-1.1l6.7-7.1c.6-.6,1-1.5,1.6-2.1a6.42,6.42,0,0,1,1.3-1l.7-.5,6.4-7.1,1.1-1.4-.2-.3c-.3.2-.7.2-.9.4l-3.3,3.1-.3-.3,3.6-4.1,3.7-4.1-1-.1,2.1-2.5.3,1c.2-1,.3-2,1.7-2.3l-.7,1,.2.2,1.5-1.6.2-.2c.3-.3.9-.5,1.1-1,.2-.3.1-1,.1-1.5l.9.6.2-.2-.7-.8.8-1,.1.9,1-.7-.1-.2-.7.2-.1-.2a22.74,22.74,0,0,0,3-3.2c.9-1.2,1.5-2.6,2.6-3.5l-.1,1.6h.3l.1-.7.3.1,3.6-4.6-.1-.1-1.2,1.1-1.1,1.3-.7-.5c-.1.2-.3.3-.3.5l-.4.8-3.1,3-.9,1-2.7,3.1L63.4,208l-.7.5-.2-.2,2.9-3.2,4.7-5.2.3-.6c.2-.3.3-.7.6-.8.8-.2,1.2-.3,1-1l1.8-1.8H74l1.1-2h.7l6.8-8.1c-.3.2-.8.3-1,.6l-3.1,3.1c-1.2,1.4-2.2,2.8-3.5,4.1-2.2,2.3-4.8,4.3-6.7,7l-.7.3-1.3,1.6-1.6,1.4-1.3,1.6-3.2,3.5-.2-.7-.2-.1-.3,1-.7.3c-1.1,1.3-2.2,2.7-3.5,4a11.65,11.65,0,0,1-2,1.6l.1-1-1.6,1.8.7.3.3.3-1,.8-.3-.3.2-.6-.2-.2-.8.8-1.4,1.4-.5.9a18.89,18.89,0,0,0-2,1.9l-.4.9L45,223.4l-.3.2-2,2.6-1.5,1.2-.8,1,.9.2-.7.3c-.3.1-.6,0-.8.2l-2.9,3.2c-.3-.3-.3-.6,0-1l2.9-3c.3-.3.5-.9.9-1.3l1-1.1,5.2-5.8,1.3-1.6-.3-.1.3-1.2-1.3,1.5c-.4.4-1.3.9-1.3,1.4-.1,1-1,1.2-1.3,1.8l-.6,1c-.4.3-.9.4-1.1.8-2.2,2.4-4.3,4.9-6.7,7.3-1,1-2.2,1.6-3.1,2.6l-3.2,3.2-6.9,7.5a.71.71,0,0,1-.6.3l-.4-.2-.1.2.3.2-.5.8-1.3-.2,1.6-2.3,6.5-7.3c.9-1,2-1.6,2.9-2.5a36,36,0,0,0,2.9-3.5l-.8-.3,3-3.8-.2-.2c-1.9,1.1-2.7,3.5-4.6,4.8l-.3-.9-7.3,7.7-.1-.1.3-.7,3.9-4.5,2.3-2.7.1-.3h.2v-.1l-.2.1-.2.2-.3.1.2-.4,3.2-3.5.4-1,.2-.3-.1-.1-.2.2-1.8,1.6-.2-.2,1.6-2-.2-.2-5.2,5.6-.2-.1a9.33,9.33,0,0,1,.7-1.5L26,228.9l.9-1.6-.7.1,1.1-1.6-.8.2.3-.6-.1-.1-2,2.1c1.8-3.4,5.1-5.6,6.9-9l-.3-.2-2.9,3.3,1.4-2.7.5-.9-1,.4.6-1-.1-.2a3,3,0,0,1-.8.4l-3,3-.6.5.2-1.3c4.7-5.3,10.1-10.3,14.6-16.2l-2.9,2.8-4.8,4.9c-.5.5-.7,1.3-1.2,1.8l-5.1,5.2-.5.2,3.1-3.6,7.6-8.5,6.4-7.1.4-.7-.2-.2-2.3,2.5-.2-.1,1.6-2.2-.2-.1-3.1,3.2-.2-.2.4-2.2-.6.4c-.5-.5,2.9-3.7,4.5-4.2l-.2-1.7.5.5,1.4-1.4-.7-.3.6-.7c.4.5.8.6,1.2,0,.3-.4.5-.9.9-1l.2-.5c.5,0,.6,1,1.2.3l-1-.7,1.5-.9,1.1-1.6,1.7-2.1,1.7-1.7,4.8-5.5.3-.4-.3-.3-3.5,4c-.3.4-.4,1-.8,1.5l-4,4.1-1.1.9c-.2.2-.3.3-.3.5l-1.5,2.3-.3-.3.4-.8-.2-.2L35.9,201.7l.2.2,1-.7v.7l1-.6v.9l-.1.8h.1v-.1h.7l-.6.6-1.5,1.1c-.3.3-.6.5-.2,1l.1.3a4.89,4.89,0,0,1-2.2,1.8l-.5.2-7.3,7.5-.1.2v.2l.2-.1a9.55,9.55,0,0,1,1.6-1.2l1.4-1-.1.2h.3l1.8-1.6a34.91,34.91,0,0,1-7,7.8l1.3-1.6a3.53,3.53,0,0,0-1.4-.3l-2.7,3.1-.5-.7,5-5.9a1.41,1.41,0,0,0-1.4,1,1.58,1.58,0,0,1-.7.7l-.3.2-4.1,4.4-.3-.3,2-2.3.5-.6,1.3-1.4c.4-.4,1.2-.6,1-1.5l.2-.3,3.1-3.2c.2-.2.2-.4.3-.8-2.08,1.72-4.11,3.48-6.1,5.3l-.1-.1,3.5-3.6.1-.1-.1-.1c.9-1,1.7-2.2,2.7-3.2l10-11,6.6-7.3c1.6-1.8,3.4-3.5,4.9-5.4,1.2-1.5,2.2-3,3.5-4.5l4.9-5.4c.3-.3.9-.3,1.2-.4.4-.3.3-.6-.2-.9l.8-.2-.3-.1.3-.6.6-.5,1.7-2.2,3.1-3.7-.3-.3-1.6,1.5-2.4,2.3L59.7,171l-.1-.1c-.2-.1-.5-.3-.6-.2l-.9,1,.6.1-3.2,2.5-.1-.1,1.6-1.9c.4-.5,1.4-.9,1-2l-1.1,1-.2-.1.5-1.1-.3-.2a52.15,52.15,0,0,0-4.5,4.9l.2.2.7-.3.2.2-4.1,5.5.5-1.9a8.27,8.27,0,0,0,.9-1.6,38.33,38.33,0,0,0-2.8,2.9,100.53,100.53,0,0,1-8.2,9.1c-.3.3-.5.8-.9,1.1l-2.3,2.6-6.4,7.3-.4.4-.1-.2a43.91,43.91,0,0,1,3.4-5l11.3-12.9c2.5-2.9,5.1-5.6,7.7-8.4l3.3-4a.91.91,0,0,0,.3-.7l.2-.3-.1-.1-.3.3-3.7,4L47,178.3q-5.88,6.63-11.6,13.4c1-1.3,1.7-2.6,2.8-3.8l6.3-7.2,3-3.6a.44.44,0,0,0,.1-.5l-2.2,1.7-.1-.1.5-.8,5.6-7.1,1.9-2.1.9-1.3.4-.5.6-.5,4.4-5.1a6.08,6.08,0,0,1,1-1.4l2.2-2.1,1.4-1.7c.3-.4.5-1,.9-1.3l6.7-7.3c1-1,2.2-1.7,3.3-2.7l-.3-.2.4-.7,2.9-3.1c.2-.2.3-.3.5-.3,1.3-1.1,2.8-2.2,3.5-4,.1-.3.6-.3.8-.6l1.3-1.8,1.6-1.7.6-.6c.3-.6.6-1.4,1.5-1.6l.2-.2c-.1-1.4,1.3-1.6,2-2.4l6.4-6.7c-.5-.8-.2-1.4.7-1.6a6.77,6.77,0,0,0,3.3-2.5c.2-.3.5-.3.9-.4.8-.3.4-.9.1-1.3,1.9.6,2-1.3,2.9-2l.5-.4.3.1-.3-1.7,1.5-.2c.2,0,.2-.4.1-.7l2.2-2.2,1.1-.9.1.3.1-.1-.2-.2.4-.2.4-.9c3.8-3.8,7.6-7.7,11.5-11.4,2.2-2.1,4.6-3.9,6.8-5.9,1.1-1,2-2.3,3.1-3.4l2.9-2.2-.3-.4c1-.6,2.2-1,2.5-2.6l-2,1.4c-.5.3-.8,1.1-1.6.9-.2-.1-.5.4-.7.6l.2.7a3.09,3.09,0,0,1-1,.4c.3.9-.4,1.1-1.2,1.5l-.2.2c.2,1.3-1,1.2-1.6,1.6l-1,1c-.6.6-1,1.3-1.6,1.8-.3.3-.8.3-1.1.4a5.3,5.3,0,0,0-1,.6l.2.5-2.4,2.7v-.6c-1.9.6-3,2.2-4.3,3.5.3.3.3.3.8-.3a1.28,1.28,0,0,1,1-.4l-5.1,4.5.3.4-.5-.4.3.2,2.4-2.5-.3-.4-.7.5-4.1,4.1-2.6,2.5c-.6.6-1.4,1-2.1,1.6l-1.7,1.6c-.8.9-1.4,1.9-2.2,2.7l-3.3,3-.6.7a4.17,4.17,0,0,1-3.1,2.2c-.6.1-1.2,1-1.7,1.5l-3.4,3.2.3-.4,4.8-5.3.7-.9a16.6,16.6,0,0,0,2.1-1.6l3.2-3.3,3.2-3.2c.2-.2.4-.2.7-.3l-.2-.9-3.1,2.9c-.3.3-.7,1.2-1.3.5s.4-.8.7-1a7.13,7.13,0,0,1,1.6-1.3l-.2-.3h-.8l2.7-2.3-.2-.4.2-.2.8.5,1.6-1.6c1.6-1.8,3.9-3,5.2-5.2a6.89,6.89,0,0,1,1.3-1.1l1-.9c.3-.3.2-1.2,1-.9l.3-.3,4.7-4.7,5.6-6a52.9,52.9,0,0,1,8-7.7,26.47,26.47,0,0,0,2.9-2.9l2.4-2.1.1.9,1-1-1,.2a35.71,35.71,0,0,1,4.9-3.8,26,26,0,0,0,3.3-2.5c1.6-1.4,3.1-3,4.8-4.3s3.5-2.3,5.2-3.5c.3-.3.4-.8.8-1a8.43,8.43,0,0,1,1.4-.6l.3-.2,1.3-1.7,4-3.5,5.9-4.7c3.1-2.5,6.1-5.2,9.2-7.6a40.66,40.66,0,0,1,4.9-3.1l.4.9c.4,1.3.5,1.3,1.5.3l2,2.1,2.9-1.9.4.9,1.3-.6c.3.5.9.5,1.1,0l1.4.3c-.3,1.1.4,1,1.3.8l.6.3.7.5.4.4c.1.8.7,1,1.3,1l.9-.1c1.6-.3,2.2.2,2.5,1.6.2,1.2.5,1.6,1.8,1.6l1.6-.1a1.69,1.69,0,0,1,1,.3,13.57,13.57,0,0,1,.9,2.3,1.06,1.06,0,0,0,.6,1.1l1.4,1c-1.2.8-1.3,1.4-.5,2.8l.4.9c.3.6.2,1-.3,1.6-1,1-.7,1.7.6,2.2,1.6.4,4.1-1.3,4.1-3,0-.3-.5-.7-1-1.3l1.5.5,1.5.4c.7.2,1.3,0,2.1.5a2.38,2.38,0,0,1,1,2.1h.7a.84.84,0,0,1,.7.2l1.4,1.3-.5,1.5h.8l.2.9,1.5-.5c.3,1.1-1.9,1.4-1.2,2.7a4.83,4.83,0,0,1,1.6-.3v1.7l.3.1-1,1.9c1.7.7.9,2.2,1,3.3l.7-.3.1.2L226.6,68c-1.6,1.6-3.1,3.4-4.8,5L218,76.2l-1,1.1-2.7,2.5a13.9,13.9,0,0,1-2.1,1.1l-1.2,1c-.4-.3-.8-.6-1.2-.2L205,85.9l-11.1,9.8c-1.49,1.3-3,2.64-4.4,4l.2.3,4.2-3.3c-1.6,2.5-4.2,3.8-6.2,5.6l-.4.2-.3.7-.4-.7-.6.4-2.5,2.3c-.3.3-.9.3-1.2.7l-2,2c-.7,0-1,.9-1.6,1.6l-.3-.2.2.3-2,1.7-.7,1-5.3,4.9a10.59,10.59,0,0,1-1,1.2l-1.8,1.6a1.21,1.21,0,0,0-.3,1l.8-.7,2-1.6.3-.3,3.9-4.2-.1,1.3-1.4,1,.3.3-.8.3-3.4,3.7.3.3c-1.6.4-2.9,1.2-3,3.2l-.3-.6-.3-.3-4.7,5.3-.3-1.1-1,2.4-.5-.4-.3-.2-.2.2.3.2-.3.5c-.8-.3-.9.4-1.1.9l.7-.3.2.1-.5.6-.5.5-.6.4-.3-.8-.2.3a20.18,20.18,0,0,1-1,2.1l-.3.2-.1-.5H155l.1.6h-.3l-.2-.5-4.4,5.3-.2-.4-1,1.6c-.9-.6-.7.5-1.1.8a4.49,4.49,0,0,0-1,1.3l-.3-.2-.9,1.2c-.1.2-.3.2-.4.3h-.1l-1.9,2.3c-.6-.1-.6.5-.5,1.1a1.27,1.27,0,0,0-1.6,1c-.1,1-.6.8-1.3.5l1.5-1.6,14.3-15c.6-.6,1-1.4,1.6-2.1l-.3-.2-4.6,4.8-.4-.3c-.3.6,0,1.7-1.2,1.4a3.19,3.19,0,0,1-2.1,2.4l-.7.5-.6.3-2,2.7-.1.1c-1.6.7-2.1,2.5-3.3,3.5l-2.8,2.3-.4.5-.9,1c.5.8-.9.4-1,1h.5c-1,1.4-3.1,1.6-3.7,3.5l-1.5,1.1.3.3-.3.2-.9.3-3.7,3.8-.4.2-3.9,4.5-.1-.1-1.2,1,.5.5-1.4,1-.4-.3-.2.7.5-.2.1.3-1.5.3v.3h.6l.2.2a12.38,12.38,0,0,1-1.8,1.4c-.6.2-.9.3-.8,1a.32.32,0,0,1-.3.3v-.4c-.7.9-2.3,1-1.9,2.8l-.9-.6-.2.1.4.9-2.8,2.7-.2-.1.3-.5-.2-.1-2.2,2.2-.5.5-5.8,5.6-1.2,1.4c-.3.3-.3,1.1-1.1.9l-.3.3-2.4,2.4q-1.68,1.72-3.5,3.3a10.13,10.13,0,0,1-2,1.4l1-1.3,1-.9,5-4.8.9-1.1-6.6,6.2c-2,2.2-4.6,3.7-6.3,6.4l-.3-.1-1.5,1.9-.2-.1.2-.8-.9,1,.1.1.4-.3.2.2-1.6,1.7-.3-.3.6-.9c-.7.3-1,.5-1.1,1.2a1.2,1.2,0,0,1-.8.9c-.9.3-1.2,1-1.8,1.6L77.5,207c-1.2,1.2-2.2,2.5-3.5,3.7l-3.5,3.5-.8.6c1.5-.3,2.2-1.4,3.1-2.5l.3.2c-.2.3-.2.7-.4.9l-7,7.2-.5.8h-.1l.1.2c-.3.3-.7.9-1.1,1-1.3.4-1.8,1.6-2.7,2.4-2.6,2.5-5,5.3-7.5,7.9l-6.5,6.4-1.3,1.6-2,1.7a46.82,46.82,0,0,0-4.2,4.7c-.2-.3-.3-.3-.3-.6l-1,1.3-.2-.2.4-.8c.9-.9,1.6-2.1,2.6-2.5.8-.3.7-.8,1-1.2l-.1-.3-1.4,1.1c.4-1.6,1.5-2.3,2.6-3.2l.3.4a5.3,5.3,0,0,0,1-.6l1-1.1,1.5-1.5c-1.1-.7-1.1-1-1-1.3ZM34.8,212l.3-.1.6-.1-1.3,1.7c1.2.2,1.4-1.2,2.4-1.4l-.4.7c-1,1.1-2.2,2.2-3.2,3.5l-.9,1.3a2.38,2.38,0,0,0,1.1-.6l1.1-1.1,1.3-1.2-1,2.3.2.2,2.1-2.4c-.3-.3-.3-.3-1.2-.1l1-1.5c.4.4,1.2.3,1.3-.1.2-.9.9-.7,1.4-.7,1,.1,1.6-.3,1.7-1.3l.5.1,4.3-4.8-.3-.3-1.6,1.6.5-1-.2-.2-1.9,2.1-.9.7-.1-.1-.4-.2-.9,1.2c-.1.2-.3.2-.5.3l-.2-.3,2.2-2.9,6.3-7.1,10.6-11.8.2-.5-.3-.1c-1.4,1.6-2.4,3.6-4.5,4.7l-.2-1.1-1,1.2c-.2.3-.4.5-.3.8.2.8-.3,1.3-.7,1.8l-1.2,1.4-.2.1-.4-.5-.9,1.2.2.1,1-.7c.1.3,0,.3-.1.4l-5.3,6-6.4,6.6-.7,1-.6.3c.5-1,1.2-1.8,1.7-2.7.3-.5.4-1,1-1.4a5.31,5.31,0,0,0,.9-1.1c.1-.2,0-.5,0-.8h-.3l-.3.8-.5-.2-2.4,2.9a26.09,26.09,0,0,0-2.2,2.7l-.4.7Zm56.7-47.2-.2.2a17.68,17.68,0,0,0-2.2,1.6l-4.8,4.8-.8.7a11.44,11.44,0,0,1-2.6,3.2c-1,1-2.2,1.6-3.2,2.7-1.6,1.6-2.8,3.5-4.5,5l-2.8,3.1-1,1.3-3.8,3.8-.7.4-.4.7-1.2,1.3-2.6,2.7c-.2.2-.7,0-1,0l.6-.4-.3-.3-.4.5c-.4-.2-.4-.2-.1-.6l1.9-2.2-.2-.3-1.3.9-.3-.3,1.7-1.6a1.91,1.91,0,0,0,.5-1l.1-.7c.3.1.4.3.7.3l.4-.6.2.2a5.3,5.3,0,0,1-.6,1l-.9.9-.1.6.3.1.3-.4.3-.7q1.8-1.9,3.5-3.9l-.2-.1-2.3,2.4-.8-.5.7-.3-.1-.3-.8.1c-2.2,2.9-5.4,4.7-7.2,7.9a7.91,7.91,0,0,1-1.6,1.5l1.4.2c-.1.7.3.6.8.3l1.8-1.7.2.2-.2.8,1.2-1.2h.6l-.1.5-2.6,2.9-1.9,2.3a5.8,5.8,0,0,1-1,1.2c-.3.3-1,.3-1.3.7a13.36,13.36,0,0,0-2,2.1l-1.3,1.7.1.1,1.1-.9.1.1-1.7,2.1-.2-.1.6-1-.2-.1-1.2,1,.8.5c-.3.1-.3.3-.5.3l-.6-.2-.1,1-1.6.6.1.3.5.1-.3.4a1,1,0,0,0-1,.9l-3.5,4-.3-.1-.4,1.2-1.4,1.5-.9,1.6.3.2,1.6-1.2.1.5,1.4-1c-.4-1,.6-.8,1-1-.4-1.2,1-1,1-1.9l.4.4,4-4.8-.3-.2,1.9-2.3.2.1-.3.7.3.2a40.58,40.58,0,0,0,4.4-4.9l.2-.3-.1-.1-.3.2h-.8l2.2-2.8.9-.9a11.2,11.2,0,0,0,2-1.7c1-1.4,1-1.5,2.2-1l2.1-2.6.2-.6.5-.8.3-.1.8.1-.9-1,1-1.3.3.1-.3,1.5c.7-.2.3-.9.4-1.2l2.1-1.4-.6.1-.1-.1.8-.9.7.4.2-.6.5-.6a5,5,0,0,0,1.9-2.3l-.4-.6,1-.3,2-2.4-.4-.1a24.16,24.16,0,0,1,6-6.7l.1,1.5a1.72,1.72,0,0,0,.4-.7l1.2-1.1.7-.4.2.6h.9l-.4,1-.6-.3L80,181.6l-.3-.1-1.6,1.8a8.71,8.71,0,0,0-1.1,1.8c-.3.1-.6.1-.8.3L74,187.8l-.3.6.2.1,3.3-3.3,5.1-5.7,1.8-1.6-.7.3-.6-1.1.2-.2-.3.6-.3-.1.3-1.5-.9.2-.2-.2,4.5-4.9.3.3-1.2,1.4.2.3,1.5-.4.1.1-1,1.2c-.4-.8-.8-.9-1.4-.1l1.4.1-.3.6a9.41,9.41,0,0,0,2.2-1.5l.1-.3a2.17,2.17,0,0,1,1.4-2c.4-.3,1-.4,1.4-.9.6-.7,1-1.6,1.5-2.3l-.4-.6.8.3.5-.7.7.3c-.2-.9-.2-.9-.9-.6a2.15,2.15,0,0,1-.8,0v-.3l.8-.1h.6c-.8-.8-1.3-.3-1.8.2l-1.3,1.4-.5.7.8.1-.1,1-.6-.1c-.1.6-.1,1.1-.9.5l-1,1.4-1.1-.7,1.1-.7c.3-.2.6-.3.6-.5a3.43,3.43,0,0,1,1.2-2.2l1.8-2.1ZM34.6,214.1Zm44.7-20.5.2-.2,1-.3-1.2,1.7-.4-.7-.4,1-.9,1.1-.2-.2a10.14,10.14,0,0,1-.9,1.3l-.3-.3-.7.8a12.45,12.45,0,0,1-1.6,2.2,4.21,4.21,0,0,1-1.9,1.6c-.9.3-1,1-1.3,1.6l-.4.7-.7.6a3,3,0,0,1-.8.4l-.4.5c-.3.3-.7.7-.6.8.3.6-.2.7-.4.9l-2.1,1.3-.3.3-.9,1.6-.6.1-1.3,2,.7-.4c1.6-1.6,2.9-3.2,4.6-4.7q5.41-5.18,10.6-10.6l2.1-2.4,2-2.1,1.7-2.2-1-.2-.1-.3-3.5,3.8v.3Zm37-96.9-.2.2-.2.3.1.1.2-.3ZM68,170.8l-.3.2-7.1,7.5a.71.71,0,0,0-.3.6l1-.5c1.6-1.7,3.3-3.5,4.8-5.4l1.6-2.2.3-.2Zm-19.7,3.8.3-.2.1-.3h.1v.1l-.3.2-.2.2-.2.1Zm36.1,22.6-.2-.1.2.1c0,.2.1.3.2.3l.1-.1ZM100.2,182l.9-.5-.2-.2-.7.7-.1.2h.1ZM56,165.9l-.9.3.2.3.7-.6.2-.2.5-.2c1-1.1,2.2-2.2,3.2-3.5,1.4-1.6,2.9-3.1,4.2-4.8l2-2.4h.1v.1l-.6.3-6,6.6A9.55,9.55,0,0,1,58,163l-1.8,2.1v.6l-.2.2ZM69.7,193l.8-.7-.3-.3-.5,1C69.6,193.1,69.7,193.1,69.7,193ZM61,215.3l1-.6-.2-.3-.8.9Zm-34.5-5.4a9.55,9.55,0,0,1,1.6-1.2l-.3-.3a9.34,9.34,0,0,0-1.3,1.5Zm68.3-45.1-1.4,1.1.3.3,1.1-1.4,1-.7-.3-.3-.7,1Zm27.1-3c-.7.2-1.3.9-1,1.5ZM76.7,194.5c.1-.3.3-.4.3-.7l-.2-.1-.6.7.5.1-1.4,1.7.2.2,1.2-1.3v-.6Zm.1-13.1c-.9.4-1,1,0,1.6l.2-1.5.6.2,1.1-.3-.1-.2-1.2.2.1-.8-.2-.1a1.38,1.38,0,0,1-.5.9ZM69,183.9a2.5,2.5,0,0,0-2.2,1.7l2.2-1.7.4-.6-.3-.2Zm25.4-4.3,2.3-1.8-1.1-.3v-.1h.1l-.8,1.5-.5.7h0c-.1.1,0,.1,0,0ZM48.2,198.8l-.6-.7-1,2.3.3.2Zm26-31.5a7.9,7.9,0,0,0-3.5,3.7,19.85,19.85,0,0,0,2-2.1l1.5-1.6ZM56.6,188.7h0c1-2.3,2.9-4,4.3-6l-3.4,3.2c.6-1.2,1.9-1.7,2.2-3.3l-9.9,10,.1.1,1-1-.4.5h.9c-1.4,1.6-3.1,2.9-3.9,4.9l.6.1c.3-.5.4-1,.8-1.3a29.56,29.56,0,0,1,2.6-2.4L55,190l.6-.7A5.3,5.3,0,0,0,56.6,188.7ZM35.4,220.5l1.5-.9c.3.1.9-.2,1.1-.1,1,.5,1-.4,1.4-.9a3.78,3.78,0,0,1,1.2-1c.3-.2.7,0,.4-.6l.3-.4,1.6-1.7.9-1.5c.4-.5,1-.9.9-1.7a1,1,0,0,1,.6-.8c1.1-.4,1.4-1.6,2.1-2.4l1.3-2,3.7-4.5a.71.71,0,0,0,.3-.6l-.7.2-.7.8-7.5,8.4c-.1.1-.3.2-.2.3.2,1.5-1.3,1.6-1.8,2.5-.2.3,0,.8-.2.9-1.1.9-1.6,2.5-3.3,2.6l-.2.3.7.2-.6,1.1-.1-1.2c-1.1,1-2.2,1.7-2.7,3Zm70-44.8-4,3.5c-1.1.9-1.9,2.2-3.3,2.7a.54.54,0,0,0-.3.4l-.3.8c-.6.5-1.6.6-1.6,1.6l-.2.2-3,2.5-.8.8a6.81,6.81,0,0,0,2.1-1l6.7-6.7,1-.9.2.2-.5,1,.2.1,2.5-2.5-.3-.3-1.7,1.4c.8-1.7,2.7-2.6,3.3-3.8Zm-72.5,28,.3.2,2.5-2.9,7.3-8.1,1.4-2.1-.3-.2Zm56.8-22.6c-.8-1-1.3-.6-1.6-.2l-1.9,2.2.5.2-2.2,2.5-.2-.2Zm121.4-103,.2.2,7.4-8,.2-.2.3-1q-4.14,4.43-8.1,9ZM83.7,189.5c1.4.1,2.3-1,3.3-2l-.6-.2,1.4-1.8-.3-.3Zm-22.3-9.4-.3-.3-6.5,6.7.3.3Zm78.4-40.3c-2.3,1.4-3.6,3.8-5.5,5.5C136.7,144.1,138,141.7,139.8,139.8ZM79.1,197.7l-.7.3-2.1,2.2c-.6.7-1,1.5-2.1,1.3l-.1,1.3a42.59,42.59,0,0,0,3.8-3.5A4.19,4.19,0,0,0,79.1,197.7Zm127-152.1c0-1.1-.7-2.1-1.3-1.9a.86.86,0,0,0-.7.6c-.2.4.9,1.8,1.3,1.7ZM131.6,148.3l-.3-.3q-1.71,2-3.5,3.9a7,7,0,0,0,3.8-3.6ZM43.7,196.9l.2.8-.5.8.3.2,5.2-6.2-.3-.2a25.47,25.47,0,0,1-2.6,3c-.7.6-.8,2.3-2.3,1.6Zm7,17,3.9-4.4C53.1,210.1,52,211.3,50.7,213.9Zm54-34.4-.3-.3c-1.6,1.1-2.9,2.8-4.4,4.1l.2.2Zm7.1-10.5-.3-.3-4.3,4.6.3.3Zm6.1-6.8.3.3c1-1.3,2.5-2.2,3.4-3.6l-.3-.3C120.1,159.7,119,161,117.9,162.2ZM71.2,206.1a5,5,0,0,0,2.6-2.9h-.9c.2.1.3.3.5.3-.5.3-1.1.3-1.4.7Zm22.7-26.5c-1.6.4-1.7.8-1.7,2.7C92.7,181.3,94,181,93.9,179.6Zm33.8-27.5a10.18,10.18,0,0,0-3,3.5C125.8,154.6,127.2,153.8,127.7,152.1ZM75.8,182.6,74,184.5l.8.5C75.5,184.4,76.3,183.9,75.8,182.6Zm86.4-58.8.2.3,2.9-3v-.6l-1.6,1.8-1.5,1.5ZM65.6,181c-1.3.3-1.6,1.6-2.3,2.5C64.7,183.2,64.7,181.6,65.6,181ZM56,167.7l1.4-1.9-.3-.2-1.9,2.2.2.2Zm64-6.4a3.35,3.35,0,0,0,2.4-2.6ZM54.9,184.1l.3.3,1.9-2.2-.3-.3Zm-23,32,.3.3c.8-.8,1.9-1.1,2-2.5A15.84,15.84,0,0,0,31.9,216.1ZM90.2,183c-1,0-1.2,1.3-2,1.6l-.2.6,2.2-2.2ZM70.4,206.8l-1.8,1.6A1.74,1.74,0,0,0,70.4,206.8ZM145.9,71.7v-.4l-1.3-.2-.2.9ZM65.3,198.2l-.3-.3-2.3,2.5Zm-16.7,4.4.2.3-3,2.7-.3-.3Zm75.3-46.1-.3-.2c-.5.5-1.4.7-1.5,1.6l.3.3,1.5-1.7ZM95,175.2l2.6-2.9-.2-.2c-.8,1.1-2,1.6-2.4,3.1ZM139.2,71.1l-1.7,1.6C139.2,72.3,139.3,72.2,139.2,71.1ZM93.5,163.6c.5-.2,1.4.7,1.6-.3l-.7-.6-.9.9ZM220.2,67.8l.3.2,1.6-1.9-.3-.2ZM46.9,193.5l-.3-.2-1.3,1.5.2.2Zm35.6-5.4.2.2,1.8-2-.1-.1-1.9,1.9ZM34.3,205.3l1-.9-.4-1.2-.4.4C35.4,204.3,34.4,204.8,34.3,205.3ZM141.8,74.9v-.6c-.5-.1-1-.3-1.3.3ZM82.7,175.2l.2.2,1.4-1L84,174ZM56.2,204.7l-.3-.2-1,1.6.3.2Zm-.4-10.2-.3-.2-1.1,1.5.3.2A7.17,7.17,0,0,0,55.8,194.5ZM27.4,212.4l-.2-.3-1.3.9.2.3ZM139.2,72.3l.6.6.9-1-.5-.5A8.56,8.56,0,0,1,139.2,72.3ZM27.8,212.3l1.1-1.2-1.3.3A1.64,1.64,0,0,0,27.8,212.3Zm102.5-59.6.3.3,1.2-1-.3-.3Zm15.6-82.6-.3.3.7.4.4-.3c-.3.1-.5-.1-.8-.4Zm-25.7,93.6-.2-.2-1.2,1,.3.3ZM45.4,201.4l.3.3,1-1-.2-.2ZM132.8,77.1l.2.2,1-.8-.2-.3A4.09,4.09,0,0,1,132.8,77.1Zm-29.6,75.7-.2-.2-.8.9.3.3ZM34,205.6l-.2-.2-1,1.1.2.1,1-1Zm72.3-28.3.3.2.7-.9-.2-.2Zm-47.7,3.6.2.2,1-.9-.2-.2A4.3,4.3,0,0,1,58.6,180.9Zm52.2-10.2.3.2.6-.9-.3-.2ZM27.5,225.6l.3.3,1-1.1-.2-.2ZM93,177.7l-.3-.3-.9.7.2.3ZM53.8,200.2l-.3-.3-.9,1,.2.2A4.3,4.3,0,0,0,53.8,200.2ZM47,188.1l-.3-.2-1,1.1.1.1,1.2-1Zm23.2-4.6.3.2.4-.9-.3-.2C70.4,182.9,70.4,183.3,70.2,183.5ZM30.8,208.8l-.2-.2-1,1.2.2.1Zm9.6,5-.3-.2-.7.8.3.2ZM135.1,75.7l-.2-.3-.8.5.2.3Zm25.6,49,.2.3.7-.4-.2-.3ZM90.3,182.9l.3.1.2-.9-.3-.1Zm-26.7-4.8.3.3.6-.8-.3-.3ZM29.1,208,28,209l.2.2Zm107-134.1.1.3.8-.4-.1-.3Zm-18.3,89.6.1.3c.3-.1.5-.3.8-.3l-.1-.3A1,1,0,0,1,117.8,163.5Zm-9.2,11.9-.3-.3-.6.7.2.1Zm.5-72.7c.3-.7.3-.7-.7-.7Zm40.1-34v-.3l-1.1-.1v.3Zm-36.1,99.9-.3-.2a3,3,0,0,0-.4.8l.3.2ZM59.2,202.4l-.1-.3-.7.3.1.3A1.08,1.08,0,0,1,59.2,202.4Zm40.8-46-.2-.3-.8.6.1.2A2,2,0,0,1,100,156.4Zm11.2,17.4.2.2.8-.8-.1-.1c-.3.3-.5.6-.9.7Zm-79,33.7-.2-.2-.6.8.2.2ZM142.5,69.7l.1.3.8-.3-.1-.3ZM158.9,126l.2.1.3-.7-.3-.2ZM38.5,213.7l.2.2.8-1-.2-.2Zm6.9-23.9-.2-.2-.7.5.2.2Zm12.9-9.1-.2-.2-.6.6.2.2ZM48,175.3l-.3-.3-.7.8.3.2Zm84.3-95.5v-.3l-.6.2.1.3A.65.65,0,0,1,132.3,79.8ZM49.6,212.5l-.2-.3-.6.6.2.2Zm-4.8-10.7h.3v-.5h-.3ZM29.4,226.2l-.3-.3-.6.8.2.2Zm93.3-65.3.2.3.4-.3-.1-.4C122.9,160.6,122.7,160.8,122.7,160.9ZM37.6,220.7l-.2-.2-.6.8.2.1.6-.7Zm-15,22-.2-.2-.4.6.2.1.4-.5ZM150,64.1l-.3-.3-.4.4.3.3Zm-2.9,5.1v.3l.6.1v-.3Zm-58.2,103v-.3l-.6.2.1.3A.65.65,0,0,1,88.9,172.2Zm-26.6,8.7.2.7.6-.7ZM136.5,75v.3h.6v-.2Zm-4.4,7.4-.1-.3-.5.3.1.3C131.7,82.5,131.9,82.5,132.1,82.4ZM43.3,197.5l-.2-.2-.3.3.3.3.2-.4Zm12.4,2.3-.3-.1-.2.4.2.1Zm49.8-93.5-.2-.2-.3.3.2.2Zm1.4,67.6h0l-.3.1.1.1.2-.2ZM31.6,205a.27.27,0,0,0,.3-.3l-.1-.1-.2.4Zm39.8-9.8c.2,0,.3-.1.3-.2l-.1-.1C71.7,195,71.6,195.1,71.4,195.2Zm-38.9,9-.2.2.1.1.1-.3ZM25.9,217c-.2,0-.3.1-.3.2l.1.1C25.7,217.1,25.8,217,25.9,217Zm42.2-7.6h0l-.2.1.2.1v-.2ZM25.9,220.2l-.2.1.2.1v-.2Zm4.2-2.9h-.2c.1,0,.1.1.2,0ZM210.2,80.2ZM72,194.7v-.3l-.1.1ZM33.5,222.8c-.1-.1-.1-.1-.2,0v.2ZM29,224.3l.1-.2L29,224v.3Zm16.6-18.7-.1.2s.1.1.1,0Zm6.5-30.8C52.2,174.7,52.1,174.7,52.1,174.8ZM35.8,202.2Zm25.7-22.5ZM84.3,190Zm-55,9.8-11.7,13-.2-.2.7-1,7.1-7.7,1.3-1.7,2.3-2.5h.3l.2.1Z"/>
  <path fill="#43c895" d="M22.8,238c-1.5,1.6-2.5,3.5-4.3,4.7l-.2-.2,4.2-4.8Zm33.6-67-2.5,3.2-.3-.1v-.5l2.7-2.8.1.2Zm117.9-58.7c.2,1-.3,1.4-1,1.1ZM16.4,214l-.8.9-.1-.2Zm1.9,28.8-.6.7-.2-.2.6-.7Zm4.7-5.3.7-.9.2.2-.7.8ZM16.4,214l.3-.5h.1Zm36.5-39.6c.2-.1.3-.3.5-.3l.1.2c-.2.1-.3.3-.5.3Zm89.7-29.7Zm-105,56,.2-.3.1.1c-.1.1-.1.2-.3.2C37.7,200.8,37.6,200.8,37.6,200.7Zm22.2,7.8h-.3l.1-.1Zm2.3-.3c-.1.1-.2.1-.2,0Zm-.4.4h0Zm-3.3-35.1-.2.1-.1-.1Zm.8,35.3.1.2h-.1ZM25,211.3l-.2-.1.2-.1v.2Zm-7.8,1.8c0,.1-.1.1,0,0C17,213.2,17.1,213.1,17.2,213.1Zm4.2,2.1.1-.3.1.1-.2.2Zm13.3-23.9c0,.1-.1.1,0,0Zm54.8,0,.1-.3.2.2ZM30.1,227c0-.1-.1-.1,0,0l.1-.2.1.1-.2.1ZM38,201.4l.1-.2.1.1-.2.1ZM21.3,215.2C21.2,215.3,21.2,215.2,21.3,215.2Zm43.1,5.5Zm-34.6,6.5v0Zm22-.9Zm-17-35.2-.2.2c.2,0,.2-.1.2-.2Zm-17.6,22Zm42-42.6Zm-2.7,27.1-1,1.3C55.6,197.6,55.8,197.4,56.5,197.6Zm7.6-2-1.4,1.3-.2-.2,1.3-1.5ZM58,197.3l.9-.9.3.3-.9.8-.3-.2Zm28.3-25.4,1.1-.4.1.3-1.1.5-.1-.4Zm-6.1,5.9-.7.7-.2-.2.6-.7Zm.8-.3-.8.1.5-.6Zm-1.6,2-.2-.3.3-.1-.1.4Zm7.1-6.8.3-.1.1.1c-.1,0-.2.1-.4,0Zm.1-1.7-.3.3-.2-.2.3-.3ZM48.1,210.8l.1-.2.1.1-.2.1Zm39.1-39.6-.2.1-.1-.1Zm-4.3,6.9v-.3H83Zm-.4.3ZM66.9,192.9h-.2s0-.1.2,0ZM46.8,212.5Zm40.8-41Zm-48,39.8L38,212.6l-.2-.2,1.6-1.6Zm4.2-3.1-.3.3-.1-.1.4-.2C43.7,208.1,43.8,208.1,43.8,208.2Zm-4,3.1.1.2-.1-.2Z"/>
  <path fill="#43c895" d="M39.7,211.4l-.2-.2.2.2C39.8,211.3,39.8,211.4,39.7,211.4Zm1.9-2-.2.1Zm3.5,1.1-1.4,1.3.1.1,1.2-1.6Zm-7.6,8.4-.4.5-.2-.1.4-.6.2.2Zm.7.1.1-.4.2.1-.3.3Z"/>
  <path fill="#43c895" d="M37.8,218.6l-.3.3-.2-.2.5-.1C37.7,218.5,37.8,218.5,37.8,218.6Zm.8.7-.2.1s-.1-.1,0-.1.1-.1.2,0Zm-.9-.9h0C37.8,218.5,37.7,218.5,37.7,218.4Zm.5.6h0c-.1.1-.2.1-.2,0Zm37.3-21.1.4-.3v.3Zm18.1-10.7-.2.1-.1-.1.1-.2Zm2.5-2.8Zm-8.7-1.9-.2.3-.1-.1c.1-.1.1-.2.3-.2C87.3,182.4,87.4,182.4,87.4,182.5Zm1.1-1.1-.1-.2.1-.1v.3Zm-1.9,1.7c0-.1.1-.1,0,0Zm-.5,4.5.2-.2.1.1-.3.1Zm.1.1h0C86.1,187.6,86.1,187.7,86.2,187.7ZM77,181.6l-.2-.2Z"/>
  <path fill="#43c895" d="M248.9,222.1l-1-.9c-.2-.2-.4-.3-.5-.6l-1.7-1.6c-2-2.2-3.9-4.5-6.5-6.1a10.22,10.22,0,0,1-1.8-1.8l-2.9-2.6c-.3-.3-.9-.3-1.2-.6a2.41,2.41,0,0,1-.6-.8l-.4-.9a1.54,1.54,0,0,0-1.6-.9l-.5-.2.5-.4-1-.2.2-.2-1.2-1.5-1.4-1.1-1.1-1.3-.6-.1c-.3-.8-.6-1.6-1.7-1.9,0-.3.6-1.1-.5-.8l-.3-.1-2.2-2.4-1.5-1.6-2.4-2.3a3.77,3.77,0,0,1-.9-1.5l-.2-.2c-1.8-.7-2.7-2.4-4.3-3.4l-.1.5c-.4-.6-1.3-.8-1-1.7,0-.2-.3-.3-.3-.5l-.4.3-2.4-2.2c.8-.3.7,1,1.5.3-1-.9-1-.9-1.6-.8l-.6-.7h.8l.1-.2c-.3-.1-.5-.3-.8-.3l-.1.3-.5-.9v-.1h.1l-.2.3-2.1-1.6a1.08,1.08,0,0,0-.2-.8c-.1-.1-.4,0-.6.2-.3-.3-.7-.5-.9-.9.7,1.6,2.8,2.2,2.6,4.3l.7-.6.6.8,1,1.7c.3.3.8.3,1.2.5.1,1.5,1.7,1.6,2.5,2.5l1.4,1.5,8.5,8.2,3.9,4.1-.4.5,3.2,3.2-.1.2-2.6-1.5,2.4,2.6.7-.9,1.5,1.6v.2a.8.8,0,0,0,0,1.4l1.2.9.1.1-.1.5c1.6,2.8,4.3,4.5,7.1,5.9l-.2.3-.6-.2,1.3,1.3.1-.2.9.3-.2.1.8,1.2a.65.65,0,0,0,.5.2c.4.3.8.5,1,.9l.4.7c.2.3.5.3.8.5l.7.4,6,5.8,8.8,8c.9.9,2,1.7,2.9,2.7-4.5-2.7-8-6.5-11.9-9.7-.3-.1-.5-.1-.7-.3a25,25,0,0,1-2.4-2.2l-1.1-1.3-7.1-6.6c-.6-.6-1.5-1-2.1-1.6a6.42,6.42,0,0,1-1-1.3l-.5-.7-7.1-6.4-1.4-1.1-.3.2c.2.3.2.7.4.9l3.1,3.3-.3.3-4.1-3.6-4.1-3.7-.1,1-2.5-2.1,1-.3c-.9-.2-2-.3-2.3-1.7l.9.7.2-.2-1.6-1.5-.2-.2c-.3-.3-.5-.9-.9-1.1s-.9-.1-1.5-.1l.6-.9-.2-.2-.8.7-.9-.8.9-.1-.7-1-.2.1.2.7-.2.1a22.74,22.74,0,0,0-3.2-3c-1.2-.9-2.6-1.5-3.5-2.6l1.6.1v-.3l-.7-.1.1-.3-4.6-3.6-.1.1,1.1,1.2,1.3,1.1-.5.7c.2.1.3.3.5.3l.8.4,3,3.1,1,.9,3.1,2.7c2.82,2.71,5.63,5.44,8.4,8.2l.5.7-.2.2-3.2-2.9-5.2-4.7-.6-.3c-.3-.2-.7-.3-.8-.6-.2-.8-.3-1.2-1-.9l-1.8-1.8v-.2l-2-1.1v-.7c-2.7-2.3-5.3-4.6-8.1-6.8.2.3.3.8.6,1l3.1,3.1,4.1,3.4c2.3,2.2,4.3,4.8,7,6.6l.3.7,1.6,1.3,1.4,1.6,1.6,1.3,3.5,3.2-.7.2-.1.2.9.3.3.7,4,3.4a11.65,11.65,0,0,1,1.6,2l-1-.1,1.8,1.6.3-.7.3-.3.8.9-.3.3-.6-.2-.2.2.8.8,1.4,1.4.9.5a18.89,18.89,0,0,0,1.9,2l.9.4,1.5,1.4.2.3,2.6,2,1.2,1.5,1,.8.2-.9.3.7c.1.3,0,.6.2.8l3.2,2.9c-.3.3-.6.3-1,0l-3-2.9c-.3-.3-.9-.5-1.3-.9l-1.1-.9-5.8-5.2-1.6-1.3-.1.3-1.2-.3,1.5,1.3c.4.4.9,1.3,1.4,1.3.9.1,1.2.9,1.8,1.3l1,.6c.3.4.4.9.8,1.1,2.4,2.2,4.9,4.3,7.2,6.6.9.9,1.6,2.2,2.6,3.1l3.2,3.2,7.5,6.9a.71.71,0,0,1,.3.6l-.2.4.2.1.2-.3.8.5-.2,1.3a11.87,11.87,0,0,1-2.3-1.6l-7.2-6.5-2.5-2.9c-1-1-2.2-1.9-3.4-2.9l-.3.8-3.8-3-.2.2c1.1,1.9,3.4,2.7,4.7,4.6l-.9.3q3.89,3.62,7.7,7.3l-.1.1-.7-.3-4.5-3.9-2.7-2.3-.3-.1v-.2l.1.2.2.2.1.3-.4-.2-3.4-3.2-.9-.4-.3-.2-.1.1.2.2,1.6,1.8-.2.2c-.69-.5-1.36-1-2-1.6l-.2.2,5.6,5.2-.1.2a9.33,9.33,0,0,1-1.5-.7l1.7,2.2-1.6-.9.1.7a9.27,9.27,0,0,0-1.6-1.1l.2.8-.6-.3-.1.1,2.1,2c-3.4-1.8-5.6-5.1-9-6.9l-.2.3,3.3,2.9-2.7-1.4-.9-.5.4,1-.9-.6-.2.1.4.8,3,3,.5.6-1.3-.2c-5.3-4.7-10.3-10.1-16.1-14.6L219,231q2.42,2.38,4.9,4.7c.5.5,1.3.7,1.8,1.2l5.2,5.1.2.5-3.6-3.1-8.4-7.6-7.1-6.4-.7-.4-.2.2,2.5,2.3-.1.2-2.2-1.6-.1.2,3.2,3.1-.2.2-2.2-.4.4.6c-.5.5-3.7-2.8-4.2-4.5l-1.7.2.5-.5-1.4-1.4-.3.7-.7-.6c.5-.4.6-.8,0-1.2-.4-.3-.9-.5-1-.9l-.5-.2c0-.5.9-.6.3-1.2l-.7,1-.9-1.5-1.6-1.1-2.1-1.7-1.7-1.7-5.5-4.7-.4-.3-.3.3,4,3.5c.4.3,1,.4,1.5.8l4.1,4,.9,1.1c.2.2.3.3.5.3a18.19,18.19,0,0,1,2.3,1.5l-.3.3a3,3,0,0,0-.8-.4l-.2.2,12.2,10.6.2-.2-.7-1h.7l-.6-.9h.9l.1.1v-.8l.6.6,1.1,1.5c.3.3.5.6.9.2l.3-.1a4.89,4.89,0,0,1,1.8,2.2l.2.5,7.5,7.3.2.1h.2l-.1-.2a9.55,9.55,0,0,1-1.2-1.6l-1-1.4.2.1v-.3l-1.6-1.8c.9.3,4.7,3.5,7.8,7l-1.6-1.3a3.53,3.53,0,0,0-.3,1.4l3.1,2.7-.7.5-5.9-5a1.46,1.46,0,0,0,.9,1.4,1.58,1.58,0,0,1,.7.7l.2.3,4.4,4.1-.3.3-2.3-2-.6-.5-1.4-1.3c-.4-.4-.6-1.2-1.5-1l-.3-.2-3.2-3.1c-.2-.2-.4-.2-.8-.3,1.72,2.08,3.48,4.11,5.3,6.1l-.1.1-3.6-3.5-.1-.1-.1.1c-1-.9-2.2-1.7-3.2-2.7l-10.9-10-7.3-6.5c-1.8-1.6-3.5-3.4-5.4-4.9l-4.5-3.4-5.3-4.9c-.3-.3-.3-.9-.4-1.2-.3-.4-.6-.3-.9.2l-.2-.8-.1.3-.6-.3-.5-.6-2.2-1.7-3.7-3.1-.3.3,1.5,1.6c.79.77,1.56,1.58,2.3,2.4l1.1,1.1-.1.1c-.1.2-.3.5-.2.6l1,.9.1-.6,2.5,3.2-.1.1-1.9-1.6c-.5-.4-.9-1.4-2-.9l.9,1.1-.1.2-1.1-.5-.2.3a52.26,52.26,0,0,0,4.9,4.5l.2-.2-.3-.7.2-.2,5.5,4.1-1.9-.5a6.08,6.08,0,0,0-1.6-.9l2.8,2.8a87.55,87.55,0,0,1,9,8.2c.3.3.8.5,1.1.9l2.6,2.3,7.2,6.4.4.4-.2.1a43.91,43.91,0,0,1-5-3.4L194,224.3l-8.4-7.7-4-3.3a1,1,0,0,0-.7-.3l-.3-.2-.1.1.3.3,4,3.7,5.3,4.7q6.63,5.88,13.4,11.6a33.75,33.75,0,0,1-3.8-2.8l-7.2-6.3-3.6-3a.44.44,0,0,0-.5-.1l1.7,2.2-.1.1-.8-.5-7.1-5.6-2.1-1.9-1.3-.9-.5-.4-.5-.6-5.1-4.4-1.4-.9-2.1-2.2-1.7-1.4a10.14,10.14,0,0,1-1.3-.9c-2.4-2.2-4.9-4.4-7.2-6.7-1-.9-1.7-2.2-2.7-3.3l-.2.3-.7-.4-3.1-2.9c-.2-.2-.3-.3-.3-.5-1.1-1.3-2.2-2.8-4-3.4-.3-.1-.3-.6-.6-.8l-1.8-1.3c-.59-.51-1.16-1-1.7-1.6l-.6-.6c-.6-.3-1.4-.6-1.6-1.5l-.2-.2c-1.4.1-1.6-1.3-2.4-2l-6.7-6.4c-.8.5-1.4.2-1.6-.7a6.77,6.77,0,0,0-2.5-3.3c-.3-.2-.3-.5-.4-.9-.3-.8-.9-.4-1.3-.1.6-1.9-1.3-2-2-2.8l-.4-.5.1-.3-1.7.3-.2-1.5c0-.2-.4-.2-.7-.1l-2.2-2.2-.9-1.1.3-.1-.1-.1-.2.2-.2-.4-.9-.4c-3.8-3.8-7.7-7.6-11.4-11.5-2.1-2.2-3.9-4.6-5.9-6.8-1-1.1-2.3-2-3.4-3.1l-2.2-2.8-.4.3c-.6-.9-1-2.2-2.6-2.5l1.4,2c.3.5,1.1.8.9,1.6-.1.2.4.5.6.7l.7-.2.4,1c.9-.3,1.1.4,1.5,1.2l.2.2c1.3-.2,1.2.9,1.6,1.6l.9.9c.6.6,1.3,1,1.8,1.6.3.3.3.8.4,1.1a2.66,2.66,0,0,0,.6,1l.5-.2,2.7,2.4h-.6c.6,1.9,2.2,3,3.4,4.3.3-.3.3-.3-.3-.8a1.28,1.28,0,0,1-.4-1l4.5,5.1.4-.3-.4.5.2-.3-2.5-2.4-.4.3.5.7,4.1,4.1,2.5,2.6c.6.6,1,1.4,1.6,2.1l1.6,1.7c.9.8,1.9,1.4,2.7,2.2l3,3.3.7.6a4.17,4.17,0,0,1,2.2,3.1c.1.6.9,1.2,1.5,1.7l3.2,3.4-.4-.3-5.3-4.8-.9-.7a10.62,10.62,0,0,0-1.6-2.1l-3.3-3.2-3.2-3.2c-.2-.2-.2-.4-.3-.7l-.9.2,2.9,3.1c.3.3,1.2.7.5,1.3s-.8-.4-1-.7a7.13,7.13,0,0,1-1.3-1.6l-.3.2v.8a27.55,27.55,0,0,1-2.3-2.7l-.4.2-.2-.2.5-.8a7.58,7.58,0,0,0-1.6-1.6c-1.8-1.6-3-3.9-5.2-5.2a6.89,6.89,0,0,1-1.1-1.3l-.9-.9c-.3-.3-1.2-.2-.9-1l-.3-.3-4.7-4.7-5.9-5.6a52.9,52.9,0,0,1-7.7-8,38.33,38.33,0,0,0-2.8-2.9l-2.1-2.4.9-.1-1-.9.2,1a35.71,35.71,0,0,1-3.8-4.9,26,26,0,0,0-2.5-3.3c-1.4-1.6-3-3.1-4.3-4.8s-2.3-3.4-3.5-5.2c-.3-.3-.8-.4-1-.8a5.91,5.91,0,0,1-.6-1.4l-.2-.3L65,106.6l-3.5-4-4.7-5.9c-2.5-3.1-5.2-6.1-7.6-9.2a40.66,40.66,0,0,1-3.1-4.9l.9-.4c1.3-.4,1.3-.5.3-1.5l2.1-2-1.9-2.9.9-.4-.6-1.3c.5-.3.5-.9,0-1.1a3.53,3.53,0,0,0,.3-1.4c1.1.3,1-.4.8-1.3l.3-.6.5-.7.4-.4c.8-.1.9-.7.9-1.3l-.1-.9c-.3-1.6.2-2.2,1.6-2.5,1.2-.2,1.6-.5,1.6-1.8L54,60.5c0-.3.1-.8.3-.9a13.57,13.57,0,0,1,2.3-.9,1.06,1.06,0,0,0,1.1-.6l.9-1.4c.8,1.2,1.4,1.3,2.8.5l.9-.4c.6-.3,1-.2,1.6.3.9.9,1.7.7,2.2-.6.4-1.6-1.3-4.1-3-4.1-.3,0-.7.5-1.3.9l.5-1.5.4-1.5c.2-.7,0-1.3.5-2.1a2.09,2.09,0,0,1,2.1-.9v-.7a.84.84,0,0,1,.2-.7l1.3-1.4,1.5.5v-.8l.9-.2-.5-1.5c1.1-.3,1.4,1.9,2.7,1.2a4.83,4.83,0,0,1-.3-1.6h1.7l.1-.3,1.9.9c.7-1.7,2.2-.9,3.3-.9-.5.6-.6.3-.6.1l.2-.1,1.7,1.6,5,4.7,3.2,3.8,1.1.9a32,32,0,0,1,2.5,2.7,13.9,13.9,0,0,1,1.1,2.1l.9,1.2c-.3.4-.6.8-.2,1.2l4.2,4.7q6.93,7.68,13.7,15.5l.3-.2-3.3-4.2c2.5,1.6,3.8,4.2,5.6,6.2l.2.4.7.3-.7.4.4.6,2.3,2.5c.3.3.3.9.7,1.2l2,2c0,.7.9,1,1.6,1.6l-.2.3.3-.2,1.7,2c.3.3.7.4.9.7l4.9,5.3,1.2.9,1.6,1.8a1.21,1.21,0,0,0,1,.3l-.7-.8-1.6-2-.3-.3-4.2-3.9,1.3.1,1,1.4.3-.3.3.8,3.7,3.4.3-.3a3.43,3.43,0,0,0,3.2,3l-.6.3-.3.3,5.3,4.7-1.1.3,2.4,1-.4.5-.2.3.2.2.2-.3.5.3c-.3.8.4.9.9,1.1l-.3-.7.1-.2.6.5.5.5.4.6-.8.3.3.2,2.1.9.2.3-.5.1v.1l.6-.1v.3l-.5.2,5.3,4.4-.4.2,1.6.9c-.6.9.5.7.8,1.1a4.49,4.49,0,0,0,1.3,1l-.2.3,1.2.9c.2.1.2.3.3.4v.1l2.3,1.9c-.1.6.5.6,1.1.5a1.28,1.28,0,0,0,.9,1.6c1,.1.8.6.5,1.3l-1.6-1.5-14.9-14.2c-.6-.6-1.4-1-2.1-1.6l-.2.3,4.7,4.6-.3.4c.6.3,1.7,0,1.4,1.2a3,3,0,0,1,2.4,2.1l.5.7.3.6,2.7,2,.1.1c.7,1.6,2.5,2.1,3.5,3.3l2.3,2.8.5.4.9.9c.8-.5.4.9,1,1v-.5c1.4,1,1.6,3.1,3.4,3.7l1.1,1.5.3-.3.2.3.3.9,3.8,3.7.2.4,4.5,3.9-.1.1.9,1.2.5-.5.9,1.4-.3.4.7.2-.2-.5.3-.1.3,1.5h.3v-.6l.2-.2a12.38,12.38,0,0,1,1.4,1.8c.2.6.3.9.9.8a.32.32,0,0,1,.3.3h-.4c.9.7,1,2.3,2.8,1.9l-.6.9.1.2.9-.4,2.7,2.8-.1.2-.5-.3-.1.2,2.2,2.2.5.5,5.6,5.8,1.4,1.2c.3.3,1.1.3.9,1.1l.3.3,2.4,2.4,3.3,3.4,1.4,2-1.3-1-.9-.9-4.8-5-1.1-.9c2.1,2.2,4.1,4.5,6.2,6.5s3.7,4.6,6.4,6.3l-.1.3,1.9,1.5-.1.2-.8-.2,1,.9.1-.1-.3-.4.2-.2,1.7,1.6-.3.3-.9-.6c.3.7.5,1,1.2,1.1a1.2,1.2,0,0,1,.9.8c.3.9,1,1.2,1.6,1.8l3.3,3.5,3.7,3.4,3.4,3.4.6.8c-.3-1.5-1.4-2.2-2.5-3.1l.2-.3c.3.2.7.2.9.4l7.2,7,.8.5v.1l.2-.1c.3.3.9.7.9,1.1.4,1.3,1.6,1.8,2.4,2.7,2.5,2.6,5.3,5,7.8,7.5l6.4,6.5,1.6,1.3,1.7,2c1.5,1.5,3,2.8,4.7,4.2-.3.2-.3.3-.6.3l1.3,1-.2.2-.8-.4c-.9-.9-2.1-1.6-2.5-2.6-.3-.8-.8-.7-1.2-.9l-.3.1,1.1,1.4c-1.6-.4-2.3-1.5-3.2-2.6l.4-.3c-.2-.3-.3-.7-.6-.9l-1.1-.9-1.5-1.5c1.1,0,.9,0,.6-.1Zm-24.7,11.4h0c0,.1.1.1,0,0h0l-.1-.3-.1-.6,1.7,1.3c.2-1.2-1.2-1.4-1.4-2.4l.7.4,3.4,3.2,1.3.9a2.38,2.38,0,0,0-.6-1.1l-1.1-1.1-1.2-1.3,2.3,1,.2-.2-2.4-2.1c-.3.3-.3.3-.1,1.2l-1.5-.9c.4-.4.3-1.2-.1-1.3-.9-.2-.7-.9-.7-1.4.1-1-.3-1.6-1.3-1.7l.1-.5c-1.6-1.5-3.3-2.8-4.8-4.3l-.3.3,1.6,1.6-1-.5-.2.2,2.1,1.9.7.9-.1.1-.2.4,1.2.9c.2.1.2.3.3.5l-.3.2-2.8-2.2-7.1-6.3-11.8-10.6-.5-.2-.1.3c1.6,1.4,3.6,2.4,4.7,4.5l-1.1.2,1.2.9c.3.2.5.4.8.3.8-.2,1.3.3,1.8.7l1.4,1.2.1.2-.5.4,1.2.9.1-.2-.7-.9c.3-.1.3,0,.4.1a74.29,74.29,0,0,1,5.9,5.3l6.6,6.4,1,.7.3.6c-1-.5-1.8-1.2-2.7-1.7-.5-.3-1-.4-1.4-1a5.31,5.31,0,0,0-1.1-.9c-.2-.1-.5,0-.8,0v.3l.8.3-.2.5,2.9,2.4a26.09,26.09,0,0,0,2.7,2.2l.8.3ZM177.1,177l.2.2a17.68,17.68,0,0,0,1.6,2.2l4.7,4.7.7.8a11.44,11.44,0,0,1,3.2,2.6c1,1,1.6,2.2,2.7,3.2,1.6,1.6,3.5,2.8,5,4.5.9,1,2.1,1.8,3.1,2.8l1.3,1,3.8,3.8.4.7.7.4,1.3,1.2,2.7,2.6c.2.2,0,.7,0,1l-.4-.6-.3.3.5.4c-.2.4-.2.4-.6.1l-2.2-1.9-.3.2.9,1.3-.3.3-1.6-1.7a2.05,2.05,0,0,0-.9-.5l-.7-.1c.1-.3.3-.4.3-.7l-.6-.4.2-.2c.3.2.7.3.9.6l.9.9.6.1.1-.3-.4-.3-.7-.3q-1.91-1.8-3.9-3.5l-.1.2c.77.79,1.58,1.56,2.4,2.3l-.5.8-.3-.7-.3.1.1.8c2.8,2.2,4.7,5.4,7.8,7.2a7.91,7.91,0,0,1,1.5,1.6l.2-1.4c.7.1.6-.3.3-.8l-1.7-1.8.2-.2.8.2-1.2-1.2v-.6l.5.1,2.9,2.6,2.3,1.9a5.8,5.8,0,0,1,1.2,1c.3.3.3.9.7,1.3a13.36,13.36,0,0,0,2.1,2l1.7,1.3.1-.1-.9-1.1.1-.1,2.1,1.7-.1.2-1-.6-.1.2,1,1.2.5-.8c.1.3.3.3.3.5l-.2.6,1,.1.6,1.6.3-.1.1-.5.4.3c.1.7.4.9.9.9l4,3.4-.1.3,1.2.4c.5.4.9,1,1.5,1.4l1.6.9.2-.3-1.2-1.6.5-.1a11,11,0,0,1-.9-1.4c-1,.4-.8-.6-.9-1-1.2.4-1-1-1.9-1l.4-.4-4.7-4-.2.3-2.3-1.9.1-.2.7.3.2-.3a40.09,40.09,0,0,0-4.9-4.4l-.3-.2-.1.1.2.3v.8l-2.8-2.2-.9-.9a11.2,11.2,0,0,0-1.7-2c-1.4-.9-1.5-.9-.9-2.2l-2.6-2.1-.6-.2-.8-.5-.1-.3.1-.8-.9.9-1.3-.9.1-.3,1.5.3c-.2-.7-.9-.3-1.2-.4l-1.4-2.1.1.6-.1.1-.9-.8.4-.7-.6-.2-.6-.5a5,5,0,0,0-2.3-1.9l-.6.4-.3-.9-2.4-2-.1.4a22.4,22.4,0,0,1-6.6-6l1.5-.1a1.72,1.72,0,0,0-.7-.4l-1.1-1.2-.4-.7.6-.2v-.9l1,.4-.3.6,2.4,1.6-.1.3,1.8,1.6,1.8,1.1c.1.3.1.6.3.8l2.4,2.2.6.3.1-.2-3.3-3.3-5.7-5.1-1.6-1.8.3.7-1.1.6-.2-.2.6.3-.1.3-1.5-.3.2.9-.2.2-4.9-4.5.3-.3,1.4,1.2.3-.2-.4-1.5.1-.1,1.2,1c-.8.4-.9.8-.1,1.4l.1-1.4.6.3a7.12,7.12,0,0,0-1.5-2.2l-.3-.1a2.28,2.28,0,0,1-2-1.4c-.3-.4-.4-1-.9-1.4-.7-.6-1.6-.9-2.3-1.5l-.6.4.3-.8-.7-.5.3-.7c-.9.2-.9.2-.6.9a2.15,2.15,0,0,1,0,.8h-.3l-.1-.8v-.6c-.8.8-.3,1.3.2,1.8l1.4,1.3.7.5.1-.8.9.1-.1.6c.6.1,1.1.1.5.9l1.4,1-.7,1.1-.7-1.1c-.2-.3-.3-.6-.5-.6a3.7,3.7,0,0,1-2.2-1.2l-2.1-1.8c-.2.5-.3.5-.3.4Zm49.2,56.8Zm-20.5-44.6-.2-.2-.3-.9,1.7,1.2-.7.4.9.4,1.1.9-.2.2a10.14,10.14,0,0,1,1.3.9l-.3.3.8.7a12.45,12.45,0,0,1,2.2,1.6,4.21,4.21,0,0,1,1.6,1.9c.3.9.9,1,1.6,1.3l.7.4.6.7.4.8.5.4c.3.3.7.7.8.6.6-.3.7.2.9.4l1.3,2.1.3.3,1.6.9.1.6,2,1.3-.4-.7c-1.6-1.6-3.2-2.9-4.7-4.6q-5.18-5.41-10.6-10.6l-2.4-2.1-2.1-2-2.2-1.7-.2,1-.3.1,3.8,3.5c.3-.2.3-.2.4-.1Zm-96.5-36.9c-.1,0-.1-.1,0,0h0l.2.2.3.2.1-.1-.3-.2-.3-.1Zm73.8,48.1.2.3,7.5,7.1a.71.71,0,0,0,.6.3,2.05,2.05,0,0,0-.5-.9l-5.3-4.8-2.2-1.6-.3-.4Zm3.8,19.6-.2-.3-.3-.1v-.1h.1l.2.3c0,.2.1.2.2.2l.1.2-.1-.2Zm22.5-35.9-.1.2.1-.2c.2,0,.3-.1.3-.2l-.1-.1Zm-15.1-15.7-.5-.9-.2.2.7.7.2.1v-.1Zm-16.1,44,.3.9.3-.2-.6-.7-.2-.2-.2-.5-3.4-3.2-4.7-4.2-2.4-2v-.1h.1l.3.6,6.6,5.9a9.55,9.55,0,0,1,1.2,1.6l2.1,1.8h.6v.3Zm27-13.7-.7-.8-.3.3,1,.5C205.3,198.8,205.3,198.7,205.2,198.7Zm22.3,8.7-.6-1-.3.2.9.8ZM222,241.8a9.55,9.55,0,0,1-1.2-1.6l-.3.3,1.5,1.3Zm-44.9-68.1,1.1,1.4.3-.3-1.4-1.1-.7-.9-.3.3a3.33,3.33,0,0,1,1,.6Zm-3-27c.2.7.9,1.3,1.5,1Zm32.6,45.1c-.3-.1-.4-.3-.7-.3l-.1.2.7.6.1-.5,1.7,1.4.2-.2-1.3-1.2c-.1-.2-.4,0-.6,0Zm-13-.2c.4.9.9.9,1.6,0l-1.5-.2.2-.6-.3-1.1-.2.1.2,1.2-.8-.1-.1.2.9.5Zm2.4,7.9a2.5,2.5,0,0,0,1.7,2.2l-1.7-2.2-.6-.4-.2.3.8.1Zm-4.2-25.3-1.8-2.3-.3,1.1h-.1v-.1l1.5.8.7.5ZM211,220.1l-.7.6,2.3,1,.2-.3Zm-31.5-25.7a7.22,7.22,0,0,0,3.7,3.4,19.85,19.85,0,0,0-2.1-2,10.7,10.7,0,0,0-1.6-1.4Zm21.4,17.4h0c-2.3-.9-4-2.9-6-4.3l3.2,3.4c-1.2-.6-1.7-1.9-3.3-2.2l10,9.9.1-.1-.9-1,.5.4V217c1.6,1.4,2.8,3.1,4.9,3.9l.1-.6a5.67,5.67,0,0,1-1.3-.8,29.56,29.56,0,0,1-2.4-2.6l-3.4-3.5-.7-.6-.8-1Zm31.7,21.1-.9-1.5c.1-.3-.2-.9-.1-1.1.5-1-.4-1-.9-1.4a3.78,3.78,0,0,1-1-1.2c-.2-.3,0-.7-.6-.4l-.4-.3-1.7-1.6-1.5-.9c-.5-.4-.9-1-1.7-.9a1,1,0,0,1-.8-.6c-.4-1.1-1.6-1.4-2.4-2.1l-2-1.3-4.5-3.7a.71.71,0,0,0-.6-.3l.2.7.8.7,8.4,7.5c.1.1.2.3.3.2,1.5-.2,1.6,1.3,2.5,1.8.3.2.8,0,.9.2.9,1.1,2.5,1.6,2.6,3.3l.3.2.2-.7,1.1.6-1.2.1c1,1.1,1.7,2.2,3,2.7ZM188,163.2l3.4,4c.9,1.1,2.2,1.9,2.7,3.3a.54.54,0,0,0,.4.3l.8.3c.5.6.6,1.6,1.6,1.6l.2.2,2.5,3,.8.8a6.81,6.81,0,0,0-1-2.1l-6.6-6.7-.9-.9.2-.2.9.5.1-.2-2.5-2.5-.3.3,1.4,1.7c-1.7-.9-2.5-2.9-3.7-3.4Zm27.8,72.3.2-.3-2.8-2.5c-2.7-2.4-5.3-4.9-8.1-7.2l-2.1-1.4-.2.3c4.4,3.6,8.7,7.3,13,11.1Zm-22.5-56.7c-.9.8-.6,1.3-.2,1.6l2.2,1.9.2-.5L198,184l-.2.2ZM90.6,57.8l.2-.2-8-7.4-.2-.2-1-.3ZM201.7,184.9c.1-1.4-.9-2.3-2-3.3l-.2.6-1.8-1.4-.3.3,4.3,3.8ZM192.4,207l-.3.3,6.7,6.5.3-.3Zm-40.3-78.1c1.4,2.3,3.8,3.6,5.5,5.5C156.4,132,154.1,130.6,152.1,128.9Zm57.8,60.5.3.7,2.2,2.1c.7.6,1.5,1,1.3,2.1l1.3.1-3.4-3.8a8.31,8.31,0,0,0-1.7-1.2ZM58.2,62.8c-1.1,0-2.1.7-1.9,1.3a.86.86,0,0,0,.6.7c.4.2,1.8-.9,1.7-1.3ZM160.6,137l-.3.3,3.9,3.4a7.18,7.18,0,0,0-3.6-3.7Zm48.5,87.7.8-.2.8.5.2-.3-6.2-5.2-.2.3a25.47,25.47,0,0,1,3,2.6c.6.7,2.3.7,1.6,2.3Zm17-7.1-4.4-3.9C222.3,215.3,223.5,216.3,226.1,217.6Zm-34.4-53.8-.3.3c1.1,1.6,2.8,2.9,4.1,4.4l.2-.2Zm-10.4-7.1-.3.3,4.6,4.3.3-.3C184.3,159.6,182.7,158.2,181.3,156.7Zm-6.9-6,.3-.3c-1.3-.9-2.2-2.5-3.6-3.4l-.3.3Zm43.8,46.6a5.1,5.1,0,0,0-2.8-2.6v.9c.1-.2.3-.3.3-.5.3.5.3,1.1.7,1.4s1.2.4,1.8.8Zm-26.3-22.7c.4,1.6.8,1.7,2.7,1.7C193.5,175.7,193.2,174.5,191.9,174.6Zm-27.5-33.7a10.84,10.84,0,0,0,3.4,3C166.9,142.9,166.1,141.4,164.4,140.9Zm30.4,51.7,1.9,1.8.5-.8C196.6,193.1,196.2,192.1,194.8,192.6Zm-58.6-86.1.3-.2-3-2.9h-.6l1.8,1.6Zm57,96.4c.3,1.3,1.6,1.6,2.5,2.3C195.4,203.7,193.8,203.7,193.2,202.9ZM180,212.4a10.41,10.41,0,0,1-1.9-1.4l-.2.3,2.2,1.9.2-.2Zm-6.4-63.8a3.35,3.35,0,0,0-2.6-2.4Zm22.7,65,.3-.3-2.2-1.9-.3.3Zm31.9,22.9.3-.3c-.8-.8-1.1-1.9-2.5-2Zm-33-58.2c0,1,1.3,1.2,1.6,2l.6.2-2.2-2.2ZM219,198l1.6,1.8A1.82,1.82,0,0,0,219,198ZM84.2,122.7h-.4l-.2,1.3.9.2Zm126.2,80.5-.3.3,2.5,2.3Zm4.4,16.6.3-.2,2.7,3-.3.3C216.57,221.89,215.67,220.86,214.8,219.8Zm-46-75.2-.2.3c.5.5.7,1.4,1.6,1.5l.3-.3-1.7-1.5Zm18.7,29-2.8-2.6-.2.2c1,.7,1.5,2,3,2.4ZM83.6,129.5l1.6,1.7C84.8,129.5,84.7,129.3,83.6,129.5ZM176,175c-.2-.5.7-1.4-.3-1.6l-.6.7.9.9ZM80.3,48.6l.2-.3-1.9-1.6-.2.3A7.13,7.13,0,0,0,80.3,48.6ZM205.7,221.5l-.2.3,1.5,1.3.2-.2-1.5-1.4ZM200.3,186l.2-.2-2-1.8-.1.1a17,17,0,0,1,1.9,1.9Zm17.2,48-.9-.9-1.2.4.4.4C216.5,233,216.9,233.9,217.5,234ZM87.4,127h-.6c-.1.5-.3,1,.3,1.3Zm100.1,58.7.2-.2-1-1.4-.4.3a3,3,0,0,0,1.2,1.3Zm29.4,26.6-.2.3a8.27,8.27,0,0,0,1.6.9l.2-.3Zm-10.2.2-.2.3,1.5,1.1.2-.3ZM224.5,241l-.3.2.9,1.3.3-.2A6,6,0,0,0,224.5,241ZM84.8,129.4l.6-.6-.9-.9-.5.5ZM224.4,240.6l-1.2-1.1.3,1.3ZM165.1,138.3l.3-.3-1-1.2-.3.3ZM82.7,122.7l.3.3.4-.7-.3-.4A1.23,1.23,0,0,1,82.7,122.7ZM176,148.3l-.2.2,1,1.2.3-.3a3.8,3.8,0,0,1-1.1-1.1ZM213.6,223l.3-.3-.9-.9-.2.2.8,1Zm-124-87.2.2-.2-.8-.9-.3.2Zm75.5,29.5-.2.2.9.8.3-.3C165.77,165.76,165.44,165.52,165.1,165.3Zm52.7,69-.2.2,1.1,1,.1-.2-1-1Zm-28.3-72.1.2-.3-.9-.7-.2.2Zm3.6,47.6.2-.2-.9-1-.2.2A4.3,4.3,0,0,1,193.1,209.8Zm-10.1-52,.2-.3-.9-.6-.2.3Zm54.7,83.1.3-.3-1.1-1-.2.2ZM190,175.5l-.3.3.7.9.3-.2Zm22.4,39.1-.3.3,1,.9.2-.2A4.3,4.3,0,0,0,212.4,214.6Zm-12.1,6.7-.2.3,1.1,1,.1-.1a4,4,0,0,1-1-1.2Zm-4.6-23,.2-.3-.9-.4-.2.3A2.47,2.47,0,0,1,195.7,198.3ZM221,237.5l-.2.2,1.2.9.1-.2C221.8,238.1,221.3,237.9,221,237.5Zm4.9-9.5-.2.3.8.7.2-.3A1.78,1.78,0,0,0,225.9,228ZM88.3,133.6l-.3.2.5.8.3-.2Zm48.8-25.5.3-.2-.4-.7-.3.2Zm58,70.1.1-.3-.9-.2-.1.3Zm-4.7,26.6.3-.3-.8-.6-.3.3Zm29.7,34.4.9,1.1.2-.2-1.1-.9ZM86.5,132.5l.3-.1a3,3,0,0,1-.4-.8l-.3.1Zm89.2,18.2.3-.1c-.1-.3-.3-.5-.3-.8l-.3.1A1,1,0,0,1,175.7,150.7Zm11.9,9.3-.3.3.7.6.1-.2c0-.2-.3-.5-.5-.7Zm-72.4-.5c-.7-.3-.7-.3-.7.7Zm-34-40h-.3l-.1,1.1h.3Zm99.7,36-.2.3.8.4.2-.3A3,3,0,0,1,180.9,155.5Zm33.6,53.8-.3.1.3.7.3-.1Zm-45.8-40.7-.3.2.6.8.2-.1Zm17.5-11.3.2-.2-.8-.8-.1.1.7.9Zm33.4,78.8-.2.2.8.6.2-.2ZM82.2,126.2l.3-.1-.3-.8-.3.1Zm56.1-16.5.1-.2-.7-.3-.2.3a1.34,1.34,0,0,0,.8.2Zm87.5,120.2.2-.2-.9-.8-.2.2ZM202,223l-.2.2.5.7.2-.2A2.88,2.88,0,0,0,202,223Zm-9-12.8-.2.2.6.6.2-.2Zm-5.5,10.2-.3.3.8.7.2-.3A1.58,1.58,0,0,0,187.5,220.4ZM92.3,136.3H92l.2.6.3-.1C92.3,136.7,92.3,136.5,92.3,136.3Zm132.3,82.5-.3.2.6.6.2-.2Zm-10.7,4.8v-.3h-.5v.3ZM238.3,239l-.3.3.8.6.2-.2-.7-.7Zm-65.1-93.1.3-.2-.3-.4-.4.1a1.08,1.08,0,0,0,.4.5Zm59.6,84.8-.2.2.8.6.1-.2-.7-.6Zm22,15-.2.2.6.4.1-.2-.5-.4ZM76.7,118.8l-.3.3.4.4.3-.3Zm5,2.7H82l.1-.6h-.3Zm102.7,58h-.3l.2.6.3-.1C184.4,180,184.4,179.7,184.4,179.5Zm8.7,26.7.7-.2-.7-.6ZM87.5,132.1h.3v-.6h-.2Zm7.4,4.4-.3.1.3.5.3-.1ZM209.7,225l-.2.2.3.3.3-.3-.4-.2Zm2.2-12.3-.1.3.4.2.1-.2Zm-93.1-49.6-.2.2.3.3.2-.2Zm67.4-1.5h0l.1.3.1-.1-.2-.2Zm31.1,75.1a.27.27,0,0,0-.3-.3l-.1.1.4.2ZM207.4,197c0-.2-.1-.3-.2-.3l-.1.1Zm8.9,38.9.2.2.1-.1-.3-.1Zm12.8,6.6c0,.2.1.3.2.3l.1-.1Zm-7.5-42.2h0l.1.2.1-.2c0,.1-.1,0-.2,0Zm10.8,42h0l.1.2.1-.2Zm-3-4v.2c0-.1.1-.1,0-.2ZM92.7,58.7ZM206.9,196.4h-.3l.1.1ZM235,234.9h0c-.1.1-.1.1,0,.2h.2Zm1.4,4.4-.2-.1-.1.1h.3C236.3,239.4,236.4,239.4,236.4,239.3Zm-18.7-16.5.2.1s.1-.1,0-.1h-.2C217.8,222.7,217.8,222.8,217.7,222.8Zm-30.6-6.6h0c-.1,0-.1.1,0,0Zm27.3,16.4Zm-22.5-25.7Zm10.3-22.7Z"/>
  <path fill="#43c895" d="M211.9,239l12.9,11.6-.2.2-1-.7-7.7-7.1-1.7-1.3-2.5-2.3v-.3l.2-.1Zm38.2,6.5c1.6,1.5,3.4,2.5,4.7,4.3l-.2.2-4.7-4.2ZM183.2,212l3.2,2.5-.1.3h-.5l-2.8-2.7c.2.1.2,0,.2-.1ZM124.7,94.4c1-.2,1.4.3,1.1,1A10.44,10.44,0,0,0,124.7,94.4ZM226.2,251.8l.9.8-.2.1c-.3-.3-.6-.5-.7-.9Zm28.7-1.8.7.6-.2.2-.7-.6Zm-5.3-4.7-.9-.7.2-.2.8.7Zm-23.4,6.5-.5-.3v-.1c.1.3.3.3.5.4Zm-39.6-36.3c-.1-.2-.3-.3-.3-.5l.2-.1c.1.2.3.3.3.5Zm26.3,15.3-.3-.2.1-.1c.1.1.2.1.2.3Zm7.8-22.1h0v.3l-.1-.1Zm-.3-2.3c.1.1.1.2,0,.2Zm-34.7,3.5.1.2-.1.1v-.3C185.6,210,185.7,210,185.7,209.9Zm35.3-.7.2-.1v.1Zm2.4,34.2-.1.2-.1-.2Zm1.8,7.7Zm2.2-4.1-.3-.1.1-.1.2.2Zm-23.9-13.4c.1,0,.1.1,0,0C203.6,233.7,203.6,233.6,203.5,233.6Zm0-54.6-.3-.1.2-.2Zm35.6,59.2c-.1,0-.1.1,0,0l-.2-.1.1-.1.1.2Zm-25.5-7.8-.2-.1.1-.1.1.2ZM227.4,247h0c.1.1,0,.1,0,0Zm6.3-7.2Zm-.9-35.7h.2C232.9,204,232.9,204,232.8,204.1Zm16.1,18Zm-10.8,19.6Zm1.2-3.2h0Zm-.9-21.8Zm-35.1,16.8.2.2-.2-.2Zm21.9,17.6Zm-42.5-41.9c.1.1,0,.1,0,0Zm27.1,2.6,1.3.9C209.8,212.8,209.6,212.6,209.8,211.8Zm-2-7.5,1.3,1.4-.2.2-1.5-1.3.4-.3Zm1.6,6.1-.9-.9.3-.3.8.9-.2.3Zm-25.2-28.2-.4-1.1.3-.1.5,1.1-.4.1Zm5.8,6,.7.7-.2.2-.7-.6.2-.3Zm-.3-.7.1.8-.6-.5Zm2,1.5-.3.2-.1-.3.4.1Zm-6.7-7.1-.1-.3.1-.1v.4Zm-1.8,0,.3.3-.2.2-.3-.3ZM223,220.3l-.2-.1.1-.1.1.2Zm-39.6-39,.1.2-.1.1v-.3Zm6.9,4.3H190v-.1Zm42.6,42h0c.1,0,0,.1,0,0ZM190.7,186Zm14.4,15.5v.2s-.1,0,0-.2Zm19.5,20.2Zm-40.8-40.8h0c-.1.1-.2.1,0,0Zm39.6,47.9,1.3,1.6-.2.2-1.6-1.6.5-.2Zm-3-4.3.3.3-.1.1-.2-.4c-.1.1,0,.1,0,0Zm3.1,4.1.2-.1-.2.1Z"/>
  <path fill="#43c895" d="M223.6,228.6l-.2.2.2-.2Zm-2-1.8.1.2Zm1-3.6,1.3,1.4.1-.1-1.6-1.2.2-.1Zm8.5,7.7.5.4-.1.2-.6-.4.2-.2Zm.1-.8-.4-.1.1-.2.3.3Zm-.5.4.3.3-.2.2-.1-.5Zm.7-.7.1.2s-.1.1-.1,0S231.3,229.9,231.4,229.8Zm-.8.8v0Zm.6-.5c.1.1.1.2,0,.2ZM210,193l-.3-.4h.3C210.1,192.6,210,192.8,210,193Zm-10.6-18.1.1.2-.1.1-.2-.1Zm-2.8-2.4Zm-1.9,8.6.3.2-.1.1c-.1-.1-.2-.1-.2-.3Zm-1.1-1.1-.2.1-.1-.1Zm1.7,1.9Zm4.5.5-.2-.2.1-.1.1.3Zm.1,0Zm-6.1,9-.2.2Z"/>
</svg>
